<mxfile host="app.diagrams.net" agent="Mozilla/5.0 (Windows NT 10.0; Win64; x64) AppleWebKit/537.36 (KHTML, like Gecko) Chrome/136.0.0.0 Safari/537.36 Edg/136.0.0.0" version="27.1.1">
  <diagram id="1" name="Seitenloses Diagramm">
    <mxGraphModel dx="938" dy="1775" grid="1" gridSize="10" guides="1" tooltips="1" connect="1" arrows="1" fold="1" page="1" pageScale="1" pageWidth="827" pageHeight="1169" math="0" shadow="0">
      <root>
        <mxCell id="0" />
        <mxCell id="1" parent="0" />
        <mxCell id="2" value="&lt;b&gt;RecipesController&lt;/b&gt;&lt;br&gt;––––––––––––––––––––––&lt;br&gt;––––––––––––––––––––––&lt;br&gt;&lt;div&gt;+ GetRecipes()&lt;br&gt;+ UploadRecipe()&lt;br&gt;+ UpdateRecipe()&lt;br&gt;+ GetRecipeByHash()&lt;/div&gt;" style="rounded=0;whiteSpace=wrap;html=1;strokeColor=#000000;fillColor=#ffffff;fontSize=13;fontFamily=Arial;" parent="1" vertex="1">
          <mxGeometry x="80" y="135" width="160" height="120" as="geometry" />
        </mxCell>
        <mxCell id="3" value="&lt;b&gt;ImagesController&lt;/b&gt;&lt;br&gt;––––––––––––––––––––––&lt;br&gt;––––––––––––––––––––––&lt;br&gt;&lt;div&gt;+ GetImageByHash()&lt;br&gt;+ UploadImage()&lt;br&gt;+ UpdateImage()&lt;/div&gt;" style="rounded=0;whiteSpace=wrap;html=1;strokeColor=#000000;fillColor=#ffffff;fontSize=13;fontFamily=Arial;" parent="1" vertex="1">
          <mxGeometry x="380" y="-10" width="160" height="105" as="geometry" />
        </mxCell>
        <mxCell id="4" value="&lt;b&gt;CategoriesController&lt;/b&gt;&lt;br&gt;––––––––––––––––––––––&lt;br&gt;––––––––––––––––––––––&lt;br&gt;&lt;div&gt;+ GetCategories()&lt;/div&gt;" style="rounded=0;whiteSpace=wrap;html=1;strokeColor=#000000;fillColor=#ffffff;fontSize=13;fontFamily=Arial;" parent="1" vertex="1">
          <mxGeometry x="580" y="50" width="160" height="70" as="geometry" />
        </mxCell>
        <mxCell id="5" value="&lt;b&gt;RecipeBookContext&lt;/b&gt;&#xa;––––––––––––––––––––––&#xa;+ Recipes: DbSet&lt;Recipe&gt;&#xa;+ Categories: DbSet&lt;Category&gt;&#xa;+ Images: DbSet&lt;Image&gt;&#xa;+ Instructions: DbSet&lt;Instruction&gt;&#xa;+ Ingredients: DbSet&lt;Ingredient&gt;" style="rounded=0;whiteSpace=wrap;html=1;strokeColor=#000000;fillColor=#ffffff;fontSize=13;fontFamily=Arial;" parent="1" vertex="1">
          <mxGeometry x="380" y="150" width="160" height="120" as="geometry" />
        </mxCell>
        <mxCell id="6" value="&amp;lt;&amp;lt;entity&amp;gt;&amp;gt;&lt;br&gt;&lt;b&gt;Recipe&lt;/b&gt;&lt;br&gt;––––––––––––––––––––––&lt;br&gt;+ hash: string&lt;br&gt;+ title: string&lt;br&gt;+ description: string&lt;br&gt;+ imageName: string&lt;br&gt;+ servings: int&lt;br&gt;+ cookingTime: int&lt;br&gt;+ ownerUuid: string&lt;br&gt;+ Categories: List&lt;br&gt;+ Instructions: List&lt;br&gt;+ Image: Image&lt;br&gt;––––––––––––––––––––––&lt;br&gt;+ GetRecipeStep()" style="rounded=0;whiteSpace=wrap;html=1;strokeColor=#000000;fillColor=#ffffff;fontSize=13;fontFamily=Arial;" parent="1" vertex="1">
          <mxGeometry x="80" y="275" width="160" height="250" as="geometry" />
        </mxCell>
        <mxCell id="7" value="&amp;lt;&amp;lt;entity&amp;gt;&amp;gt;&lt;div&gt;&lt;b&gt;Category&lt;/b&gt;&lt;br&gt;––––––––––––––––––––––&lt;br&gt;+ name: string&lt;br&gt;+ RecipeHash: string?&lt;/div&gt;" style="rounded=0;whiteSpace=wrap;html=1;strokeColor=#000000;fillColor=#ffffff;fontSize=13;fontFamily=Arial;" parent="1" vertex="1">
          <mxGeometry x="320" y="310" width="160" height="90" as="geometry" />
        </mxCell>
        <mxCell id="8" value="&amp;lt;&amp;lt;entity&amp;gt;&amp;gt;&lt;div&gt;&lt;b&gt;Image&lt;/b&gt;&lt;br&gt;––––––––––––––––––––––&lt;br&gt;+ hash: string&lt;br&gt;+ imageData: byte[]&lt;br&gt;+ contentType: string&lt;/div&gt;" style="rounded=0;whiteSpace=wrap;html=1;strokeColor=#000000;fillColor=#ffffff;fontSize=13;fontFamily=Arial;" parent="1" vertex="1">
          <mxGeometry x="490" y="310" width="160" height="100" as="geometry" />
        </mxCell>
        <mxCell id="9" value="&amp;lt;&amp;lt;entity&amp;gt;&amp;gt;&lt;div&gt;&lt;b&gt;Instruction&lt;/b&gt;&lt;br&gt;––––––––––––––––––––––&lt;br&gt;+ description: string&lt;br&gt;+ Ingredients: List&lt;br&gt;+ Recipe: Recipe&lt;/div&gt;" style="rounded=0;whiteSpace=wrap;html=1;strokeColor=#000000;fillColor=#ffffff;fontSize=13;fontFamily=Arial;" parent="1" vertex="1">
          <mxGeometry x="670" y="350" width="160" height="100" as="geometry" />
        </mxCell>
        <mxCell id="10" value="&amp;lt;&amp;lt;entity&amp;gt;&amp;gt;&lt;div&gt;&lt;b&gt;Ingredient&lt;/b&gt;&lt;br&gt;––––––––––––––––––––––&lt;br&gt;+ name: string&lt;br&gt;+ amount: string&lt;br&gt;+ Instruction: Instruction&lt;/div&gt;" style="rounded=0;whiteSpace=wrap;html=1;strokeColor=#000000;fillColor=#ffffff;fontSize=13;fontFamily=Arial;" parent="1" vertex="1">
          <mxGeometry x="670" y="160" width="160" height="95" as="geometry" />
        </mxCell>
        <mxCell id="11" value="&amp;lt;&amp;lt;mapper&amp;gt;&amp;gt;&lt;br&gt;&lt;b&gt;RecipeImportMapper&lt;/b&gt;&lt;br&gt;––––––––––––––––––––––&lt;br&gt;––––––––––––––––––––––&lt;br&gt;&lt;div&gt;+ MapToRecipe(import, owner): Recipe&lt;/div&gt;" style="rounded=0;whiteSpace=wrap;html=1;strokeColor=#000000;fillColor=#ffffff;fontSize=13;fontFamily=Arial;" parent="1" vertex="1">
          <mxGeometry x="80" y="-10" width="160" height="100" as="geometry" />
        </mxCell>
        <mxCell id="20" style="endArrow=open;endFill=0;dashed=1;strokeColor=#000000;entryX=0.016;entryY=0.379;entryDx=0;entryDy=0;entryPerimeter=0;exitX=1;exitY=0.5;exitDx=0;exitDy=0;" parent="1" source="2" target="5" edge="1">
          <mxGeometry relative="1" as="geometry">
            <mxPoint x="260" y="200" as="sourcePoint" />
          </mxGeometry>
        </mxCell>
        <mxCell id="piknVpk5tTyp0uE0W8Fe-34" value="Use" style="edgeLabel;html=1;align=center;verticalAlign=middle;resizable=0;points=[];" vertex="1" connectable="0" parent="20">
          <mxGeometry x="0.0521" y="1" relative="1" as="geometry">
            <mxPoint as="offset" />
          </mxGeometry>
        </mxCell>
        <mxCell id="21" style="endArrow=open;endFill=0;dashed=1;strokeColor=#000000;" parent="1" source="3" target="5" edge="1">
          <mxGeometry relative="1" as="geometry" />
        </mxCell>
        <mxCell id="piknVpk5tTyp0uE0W8Fe-39" value="Use" style="edgeLabel;html=1;align=center;verticalAlign=middle;resizable=0;points=[];" vertex="1" connectable="0" parent="21">
          <mxGeometry x="-0.1273" y="-2" relative="1" as="geometry">
            <mxPoint as="offset" />
          </mxGeometry>
        </mxCell>
        <mxCell id="22" value="Use" style="endArrow=open;endFill=0;dashed=1;strokeColor=#000000;" parent="1" source="4" target="5" edge="1">
          <mxGeometry relative="1" as="geometry" />
        </mxCell>
        <mxCell id="23" style="endArrow=open;endFill=0;dashed=1;strokeColor=#000000;" parent="1" source="2" target="11" edge="1">
          <mxGeometry relative="1" as="geometry" />
        </mxCell>
        <mxCell id="piknVpk5tTyp0uE0W8Fe-40" value="Use" style="edgeLabel;html=1;align=center;verticalAlign=middle;resizable=0;points=[];" vertex="1" connectable="0" parent="23">
          <mxGeometry x="-0.2" y="4" relative="1" as="geometry">
            <mxPoint as="offset" />
          </mxGeometry>
        </mxCell>
        <mxCell id="24" style="endArrow=open;endFill=0;strokeColor=#000000;" parent="1" source="5" target="6" edge="1">
          <mxGeometry relative="1" as="geometry" />
        </mxCell>
        <mxCell id="25" style="endArrow=open;endFill=0;strokeColor=#000000;" parent="1" source="5" target="7" edge="1">
          <mxGeometry relative="1" as="geometry" />
        </mxCell>
        <mxCell id="26" style="endArrow=open;endFill=0;strokeColor=#000000;" parent="1" source="5" target="8" edge="1">
          <mxGeometry relative="1" as="geometry" />
        </mxCell>
        <mxCell id="27" style="endArrow=open;endFill=0;strokeColor=#000000;rounded=0;curved=0;exitX=1;exitY=0.904;exitDx=0;exitDy=0;exitPerimeter=0;entryX=0.125;entryY=-0.01;entryDx=0;entryDy=0;entryPerimeter=0;" parent="1" source="5" target="9" edge="1">
          <mxGeometry relative="1" as="geometry">
            <mxPoint x="690" y="360" as="targetPoint" />
            <Array as="points">
              <mxPoint x="690" y="260" />
            </Array>
          </mxGeometry>
        </mxCell>
        <mxCell id="28" style="endArrow=open;endFill=0;strokeColor=#000000;" parent="1" source="5" target="10" edge="1">
          <mxGeometry relative="1" as="geometry" />
        </mxCell>
        <mxCell id="29" value="Use" style="endArrow=open;endFill=0;dashed=1;strokeColor=#000000;" parent="1" source="6" target="7" edge="1">
          <mxGeometry relative="1" as="geometry" />
        </mxCell>
        <mxCell id="30" value="Use" style="endArrow=open;endFill=0;dashed=1;strokeColor=#000000;entryX=0.5;entryY=1;entryDx=0;entryDy=0;rounded=0;curved=0;" parent="1" target="8" edge="1">
          <mxGeometry relative="1" as="geometry">
            <mxPoint x="239" y="440" as="sourcePoint" />
            <Array as="points">
              <mxPoint x="570" y="441" />
            </Array>
          </mxGeometry>
        </mxCell>
        <mxCell id="32" value="Use" style="endArrow=open;endFill=0;dashed=1;strokeColor=#000000;" parent="1" source="9" target="10" edge="1">
          <mxGeometry relative="1" as="geometry" />
        </mxCell>
        <mxCell id="piknVpk5tTyp0uE0W8Fe-33" value="Use" style="endArrow=open;endFill=0;dashed=1;strokeColor=#000000;exitX=0.991;exitY=0.816;exitDx=0;exitDy=0;exitPerimeter=0;entryX=0.5;entryY=1;entryDx=0;entryDy=0;rounded=0;curved=0;" edge="1" parent="1" source="6">
          <mxGeometry relative="1" as="geometry">
            <mxPoint x="420" y="485" as="sourcePoint" />
            <mxPoint x="751" y="450" as="targetPoint" />
            <Array as="points">
              <mxPoint x="751" y="481" />
            </Array>
          </mxGeometry>
        </mxCell>
      </root>
    </mxGraphModel>
  </diagram>
</mxfile>
